<svg xmlns="http://www.w3.org/2000/svg" width="192" height="192" viewBox="0 0 192 192">
  <rect width="192" height="192" rx="28" fill="#030712"/>
  <line x1="24" y1="148" x2="168" y2="148" stroke="#1f2937" stroke-width="1"/>
  <line x1="24" y1="116" x2="168" y2="116" stroke="#1f2937" stroke-width="1"/>
  <line x1="24" y1="84"  x2="168" y2="84"  stroke="#1f2937" stroke-width="1"/>
  <line x1="24" y1="52"  x2="168" y2="52"  stroke="#1f2937" stroke-width="1"/>
  <polyline
    points="24,132 52,118 80,128 108,78 136,62 168,40"
    fill="none" stroke="#10b981" stroke-width="7"
    stroke-linecap="round" stroke-linejoin="round"
  />
  <circle cx="168" cy="40" r="7" fill="#10b981"/>
  <rect x="24"  y="158" width="10" height="8"  rx="1" fill="#064e3b"/>
  <rect x="40"  y="154" width="10" height="12" rx="1" fill="#064e3b"/>
  <rect x="56"  y="160" width="10" height="6"  rx="1" fill="#064e3b"/>
  <rect x="72"  y="152" width="10" height="14" rx="1" fill="#064e3b"/>
  <rect x="88"  y="156" width="10" height="10" rx="1" fill="#064e3b"/>
  <rect x="104" y="150" width="10" height="16" rx="1" fill="#10b981"/>
  <rect x="120" y="154" width="10" height="12" rx="1" fill="#10b981"/>
  <rect x="136" y="148" width="10" height="18" rx="1" fill="#10b981"/>
  <rect x="152" y="144" width="10" height="22" rx="1" fill="#10b981"/>
</svg>
